<?xml version="1.0" encoding="utf-8"?>
<!-- Generator: Adobe Illustrator 25.0.0, SVG Export Plug-In . SVG Version: 6.00 Build 0)  -->
<svg version="1.1" id="Layer_1" xmlns="http://www.w3.org/2000/svg" xmlns:xlink="http://www.w3.org/1999/xlink" x="0px" y="0px"
	 viewBox="0 0 3000 1112" style="enable-background:new 0 0 3000 1112;" xml:space="preserve">
<style type="text/css">
	.st0{clip-path:url(#SVGID_2_);}
	.st1{clip-path:url(#SVGID_4_);fill:url(#SVGID_5_);}
	.st2{clip-path:url(#SVGID_4_);fill:#F578A6;}
	.st3{clip-path:url(#SVGID_4_);fill-rule:evenodd;clip-rule:evenodd;fill:#14BD92;}
	.st4{clip-path:url(#SVGID_4_);fill:#5A29C4;}
	.st5{clip-path:url(#SVGID_4_);}
	.st6{fill:#5CF2CD;}
	.st7{fill:#F578A6;}
	.st8{fill-rule:evenodd;clip-rule:evenodd;fill:#FFFFFF;}
	.st9{fill-rule:evenodd;clip-rule:evenodd;fill:#15003E;}
	.st10{fill-rule:evenodd;clip-rule:evenodd;fill:#0FCE7C;}
	.st11{fill-rule:evenodd;clip-rule:evenodd;fill:#EFF4EE;}
	.st12{fill-rule:evenodd;clip-rule:evenodd;fill:#FFFFFF;filter:url(#Adobe_OpacityMaskFilter);}
	.st13{mask:url(#a_2_);fill-rule:evenodd;clip-rule:evenodd;fill:#25E899;}
	.st14{fill-rule:evenodd;clip-rule:evenodd;fill:#25E899;}
</style>
<g>
	<defs>
		<rect id="SVGID_1_" width="3000" height="1112"/>
	</defs>
	<clipPath id="SVGID_2_">
		<use xlink:href="#SVGID_1_"  style="overflow:visible;"/>
	</clipPath>
	<g class="st0">
		<defs>
			<rect id="SVGID_3_" y="-194" width="3000" height="1500"/>
		</defs>
		<clipPath id="SVGID_4_">
			<use xlink:href="#SVGID_3_"  style="overflow:visible;"/>
		</clipPath>
		<linearGradient id="SVGID_5_" gradientUnits="userSpaceOnUse" x1="0" y1="556" x2="3808.1177" y2="556">
			<stop  offset="0" style="stop-color:#8D60F7"/>
			<stop  offset="0.1355" style="stop-color:#9F64E9"/>
			<stop  offset="0.5269" style="stop-color:#CD6FC5"/>
			<stop  offset="0.8278" style="stop-color:#EA76AE"/>
			<stop  offset="1" style="stop-color:#F578A6"/>
		</linearGradient>
		<rect class="st1" width="3000" height="1112"/>
		<path class="st2" d="M1084.7-318.7c19.5,106.1,1.4,224.8-72.9,303C901.9,100,702.5,99.1,603.4,224.3
			c-57,72-68.5,172.6-127.6,242.9c-61.6,73.2-164.4,99.4-260.1,96c-195.7-7-380.2-125.4-481.5-293
			C-367.1,102.7-387.6-108-335.9-296.8C-284.1-485.6-163.7-652.2-10.4-774c101.7-80.8,223.1-144.5,352.9-148.5
			c141.2-4.4,274,61.1,399.9,125c85.4,43.3,181.1,93.1,225.8,182.6C1014.9-521.2,1065.6-422.5,1084.7-318.7z"/>
		<path class="st3" d="M2821.8,60.5c-156.4-5.2-321.1,76.7-415.9,202.8c-47.3,62.9-77.5,139.1-75.8,218.6
			c1.8,81.6,84,173.2,61.1,248.9c-39.3,130.2-233.2,161.9-324.1,249c-173.8,166.4-231.7,475.7,19.2,596.6
			c405.2,195.1,855.5,120.1,1013.1-195.1c157.6-315.2,240.1-712.9,165.1-923C3189.5,248.1,3046.9,68,2821.8,60.5z"/>
		<path class="st4" d="M846.8-413.8c-60.6,106.4,12.4,230.3,72,295.6C950.1-84,983.4-49.7,990.4-2c9.4,63.6-20.9,126.5-37,186.5
			c-19.1,71.2-6.9,129.9,56.8,170.9c54.9,35.4,126.5,23.9,184.4,2.9c83.3-30.2,148.4-93,202.7-162.2c55-70.2,109.7-141.8,205-153.6
			c119.7-14.8,287.9,15.1,365.6-73.4c77.7-88.5,110.5-256.7-1.1-346.5c-111.5-89.8-265.3-116.5-362.7-54.6
			c-97.4,61.9-182.2,77.5-260.1,46.6c-77.9-30.8-113.2-145.2-235.3-153.7C1018.3-545.3,907.4-520.2,846.8-413.8z"/>
		<g class="st5">
			<g>
				<path class="st6" d="M2957.8,656.5c-46.6,0-87.5-22.3-125.5-45.6c-10.1-6.1-23.9-10.6-49.9,3.4c-2.4,1.3-4.8,2.6-7.2,3.9
					c-16.7,9.2-35.6,19.6-58.4,20.2c-27.2,0.7-46.4-12.7-61.9-23.5c-5-3.5-9.8-6.8-14.5-9.5c-13.8-8-29.7-10-43.4-5.5
					c-5,1.6-12.8,5.2-21.1,9c-40.1,18.3-107.2,49-161.2,5.3c-10-8.1-11.5-22.8-3.4-32.8c8.1-10,22.8-11.5,32.8-3.4
					c29.1,23.6,69.8,8,112.4-11.5c9.9-4.5,18.5-8.5,26.1-10.9c26.3-8.5,55.9-5.1,81.1,9.4c6.5,3.7,12.3,7.8,17.9,11.6
					c14.2,9.9,22.9,15.5,34.2,15.2c11.4-0.3,23.8-7.1,37-14.4c2.6-1.4,5.2-2.8,7.7-4.2c35.2-18.8,67.5-19.5,96.2-2
					c36.7,22.4,72.8,42.2,111.3,38.2c12.8-1.3,24.3,8,25.6,20.8c1.3,12.8-8,24.3-20.8,25.6C2967.6,656.3,2962.6,656.5,2957.8,656.5z
					"/>
			</g>
			<g>
				<path class="st6" d="M2957.8,535.1c-46.6,0-87.4-22.3-125.5-45.6c-10.1-6.1-23.9-10.6-49.9,3.4c-2.4,1.3-4.8,2.6-7.2,3.9
					c-16.7,9.2-35.6,19.6-58.4,20.2c-27.2,0.7-46.4-12.7-61.9-23.5c-5-3.5-9.7-6.8-14.5-9.5c-13.8-8-29.7-10-43.4-5.5
					c-5,1.6-12.8,5.2-21.1,9c-40.1,18.3-107.2,49-161.2,5.3c-10-8.1-11.5-22.8-3.4-32.8c8.1-10,22.8-11.5,32.8-3.4
					c29.1,23.6,69.8,8,112.4-11.5c9.9-4.5,18.5-8.5,26.1-10.9c26.3-8.5,55.9-5.1,81.1,9.4c6.5,3.7,12.3,7.8,17.9,11.6
					c14.2,9.9,22.9,15.4,34.2,15.2c11.4-0.3,23.8-7.1,37-14.4c2.6-1.4,5.2-2.8,7.7-4.2c35.2-18.8,67.5-19.5,96.2-2.1
					c36.7,22.4,72.8,42.2,111.3,38.2c12.8-1.3,24.3,8,25.6,20.8c1.3,12.8-8,24.3-20.8,25.6C2967.6,534.8,2962.6,535.1,2957.8,535.1z
					"/>
			</g>
			<g>
				<path class="st6" d="M2957.8,392.8c-46.6,0-87.4-22.3-125.5-45.6c-10.1-6.1-23.9-10.6-49.9,3.4c-2.4,1.3-4.8,2.6-7.2,3.9
					c-16.7,9.2-35.6,19.6-58.4,20.2c-27.2,0.7-46.4-12.7-61.9-23.5c-5-3.5-9.7-6.8-14.5-9.5c-13.8-8-29.7-10-43.4-5.5
					c-5,1.6-12.8,5.2-21.1,9c-40.1,18.3-107.2,49-161.2,5.3c-10-8.1-11.5-22.8-3.4-32.8c8.1-10,22.8-11.5,32.8-3.4
					c29.1,23.6,69.8,8,112.4-11.5c9.9-4.5,18.5-8.5,26.1-10.9c26.3-8.5,55.9-5.1,81.1,9.4c6.5,3.7,12.3,7.8,17.9,11.6
					c14.2,9.9,22.8,15.4,34.2,15.2c11.4-0.3,23.8-7.1,37-14.4c2.6-1.4,5.2-2.8,7.7-4.2c35.2-18.8,67.5-19.5,96.2-2
					c36.7,22.4,72.8,42.1,111.3,38.2c12.8-1.3,24.3,8,25.6,20.8c1.3,12.8-8,24.3-20.8,25.6C2967.6,392.6,2962.6,392.8,2957.8,392.8z
					"/>
			</g>
		</g>
		<g class="st5">
			<path class="st7" d="M1495.8,881.2c-86.3,0-170.8-41.4-231.8-113.5c-66.5-78.6-96.8-182-80.9-276.6
				c24.8-148.4,159.3-260.4,312.8-260.4c179.3,0,325.2,145.9,325.2,325.2C1821.1,735.3,1675.2,881.2,1495.8,881.2z M1495.8,236.8
				c-150.6,0-282.4,109.8-306.8,255.3c-15.5,92.9,14.2,194.5,79.6,271.7c59.9,70.8,142.7,111.4,227.2,111.4
				c176,0,319.2-143.2,319.2-319.2C1815,380,1671.8,236.8,1495.8,236.8z"/>
			<path class="st7" d="M1495.8,840.3c-100.8,0-190.5-59.7-239.8-159.7c-51.6-104.7-43.7-221.9,20.7-305.8
				c48.9-63.6,132.8-103.2,219-103.2c156.8,0,284.3,127.6,284.3,284.3C1780.2,712.8,1652.6,840.3,1495.8,840.3z M1495.8,277.7
				c-84.4,0-166.4,38.6-214.2,100.8c-63,82-70.7,196.7-20.1,299.4c48.3,97.9,135.9,156.4,234.3,156.4
				c153.4,0,278.3-124.8,278.3-278.3C1774.1,402.6,1649.3,277.7,1495.8,277.7z"/>
			<path class="st7" d="M1495.8,786.9c-110,0-207.4-92.5-221.7-210.5c-8-66.2,13.6-131.6,59.3-179.4
				c45.1-47.1,108.6-71.2,174.2-66.1c122.8,9.6,219,108.5,219,225.1C1726.7,683.3,1623.1,786.9,1495.8,786.9z M1490.4,336.3
				c-57.7,0-112.5,23.2-152.5,64.9c-44.5,46.5-65.5,110-57.7,174.5c14,115.1,108.7,205.2,215.7,205.2c124,0,224.8-100.9,224.8-224.8
				c0-113.5-93.8-209.8-213.4-219.1C1501.6,336.5,1496,336.3,1490.4,336.3z"/>
			<path class="st7" d="M1495.8,738.1c-92.7,0-175.4-79.3-180.5-173.1c-2.6-48.1,15.8-96.8,50.5-133.4c34.6-36.6,82-57.5,130-57.5
				c100.4,0,182.1,81.7,182.1,182.1C1677.9,656.4,1596.2,738.1,1495.8,738.1z M1495.8,380c-46.4,0-92.1,20.3-125.6,55.6
				c-33.6,35.5-51.4,82.5-48.9,128.9c4.9,90.8,84.9,167.4,174.5,167.4c97,0,176-79,176-176C1671.8,459,1592.9,380,1495.8,380z"/>
		</g>
	</g>
</g>
<g>
	<path class="st8" d="M1535.6,552.2l14,27.5l-10.6,45l-25.2-20.6l4.4-33L1535.6,552.2z"/>
	<path class="st9" d="M1498.4,543c-2.9,0-5.3-2.4-5.3-5.3v-41.4c0-2.9,2.4-5.3,5.3-5.3s5.3,2.4,5.3,5.3v41.4
		C1503.6,540.6,1501.3,543,1498.4,543"/>
	<path class="st9" d="M1506.8,543h-16.2c-2.9-0.1-5.2-2.5-5.2-5.4c0.1-2.8,2.3-5.1,5.2-5.2h16.2c2.9,0,5.2,2.4,5.2,5.3
		C1512,540.6,1509.7,542.9,1506.8,543"/>
	<path class="st8" d="M1535.6,552.2l17.3-16.3c-13.2-13.2-31.5-21.4-51.6-21.4c-40.3,0-73,32.7-73,73c0,40.3,32.7,73,73,73
		c15,0,28.3,5.5,39.9-2.3l14.5,2l-0.4-23.5l-41.4-32.8l8.9-41.9L1535.6,552.2"/>
	<path class="st9" d="M1501.3,667.7c-44.2,0-80.2-36-80.2-80.2c0-44.2,36-80.2,80.2-80.2c21.4,0,41.6,8.3,56.7,23.5l5.2,5.2
		l-22.6,21.3l-9.8-10.4l11.6-10.9c-11.6-9.3-26-14.4-41.1-14.4c-36.3,0-65.9,29.5-65.9,65.9c0,36.3,29.5,65.9,65.9,65.9"/>
	<path class="st10" d="M1541.5,626.5l-10.3-10c7.6-7.8,11.8-18.1,11.8-29c0-11.4-4.5-22-12.7-29.9l-5.4-5.2l5.8-5.4l4.9,5.2l4.7-4.8
		c11,10.6,17,24.9,17,40.2C1557.3,602.2,1551.7,616,1541.5,626.5"/>
	<path class="st11" d="M1484.8,587.5c0-9.1,7.4-16.5,16.5-16.5c9.1,0,16.5,7.4,16.5,16.5c0,9.1-7.4,16.5-16.5,16.5
		C1492.2,604,1484.8,596.6,1484.8,587.5"/>
	<path class="st9" d="M1501.3,578.2c-5.1,0-9.3,4.2-9.3,9.3c0,5.1,4.2,9.3,9.3,9.3c5.1,0,9.3-4.2,9.3-9.3
		C1510.6,582.4,1506.4,578.2,1501.3,578.2 M1501.3,611.2c-13,0-23.7-10.6-23.7-23.7s10.6-23.7,23.7-23.7c13,0,23.7,10.6,23.7,23.7
		S1514.3,611.2,1501.3,611.2 M1552.9,535.9l-41.7,38.5"/>
	<path class="st9" d="M1516.1,579.7l-9.7-10.5l41.7-38.5l9.7,10.5L1516.1,579.7z"/>
	<path class="st8" d="M1509.1,602.1l30,22.6l16.2,12.2v30.9l-32.5-1.6"/>
	<path class="st9" d="M1562.4,667.7H1500v-14.3h48v-13l-43.3-32.6l8.6-11.5l49,36.9L1562.4,667.7z"/>
	<defs>
		<filter id="Adobe_OpacityMaskFilter" filterUnits="userSpaceOnUse" x="1567.4" y="494.5" width="11.5" height="11.5">
			<feColorMatrix  type="matrix" values="1 0 0 0 0  0 1 0 0 0  0 0 1 0 0  0 0 0 1 0"/>
		</filter>
	</defs>
	<mask maskUnits="userSpaceOnUse" x="1567.4" y="494.5" width="11.5" height="11.5" id="a_2_">
		<path class="st12" d="M1421.4,445h11.5v11.5h-11.5V445z"/>
	</mask>
	<path class="st13" d="M1578.9,500.2l-5.7,5.7l-5.7-5.7l5.7-5.7L1578.9,500.2z"/>
	<path class="st14" d="M1548.2,472.5l-2.7,2.7l-2.7-2.7l2.7-2.7L1548.2,472.5z M1576.8,448.4c0-2.3-1.9-4.1-4.1-4.1
		c-2.3,0-4.1,1.9-4.1,4.1c0,0,0,0,0,0c0,2.3,1.9,4.1,4.1,4.1C1574.9,452.5,1576.8,450.7,1576.8,448.4"/>
	<path class="st9" d="M1473.5,557.4c-2.9,0-5.3-2.4-5.3-5.3v-55.9c0-2.9,2.4-5.3,5.3-5.3s5.3,2.4,5.3,5.3v55.9
		C1478.8,555.1,1476.4,557.4,1473.5,557.4"/>
</g>
</svg>
